{"title":"Skyline.2010.BDRip.1080p.x264.Iou1","uid":8401849,"size":1572040853,"categoryP":"video","categoryS":"hd___movies","magnet":"?xt=urn:btih:53ba0cd32675dddec1e9d5f9f7d01ece42e8eb8d&amp;dn=Skyline.2010.BDRip.1080p.x264.Iou1&amp;tr=udp%3A%2F%2Ftracker.openbittorrent.com%3A80&amp;tr=udp%3A%2F%2Fopen.demonii.com%3A1337&amp;tr=udp%3A%2F%2Ftracker.coppersurfer.tk%3A6969&amp;tr=udp%3A%2F%2Fexodus.desync.com%3A6969","seeders":2,"leechers":0,"uploader":"jaybee211","files":-1,"time":1366718308,"description":"Genre                                    : Sci-Fi Action Thriller\nFormat                                   : MPEG-4\nFormat profile                           : Base Media / Version 2\nCodec ID                                 : mp42\nFile size                                : 1.46 GiB\nDuration                                 : 1h 32mn\nOverall bit rate mode                    : Variable\nOverall bit rate                         : 2 259 Kbps\n\nVideo\nID                                       : 1\nFormat                                   : AVC\nFormat/Info                              : Advanced Video Codec\nFormat profile                           : &lt;a class=&quot;__cf_email__&quot; href=&quot;/cdn-cgi/l/email-protection&quot; data-cfemail=&quot;b8f5d9d1d6f8f48c9688&quot;&gt;[email&amp;#160;protected]&lt;/a&gt;&lt;script cf-hash='f9e31' type=&quot;text/javascript&quot;&gt;\n/* &lt;![CDATA[ */!function(){try{var t=&quot;currentScript&quot;in document?document.currentScript:function(){for(var t=document.getElementsByTagName(&quot;script&quot;),e=t.length;e--;)if(t[e].getAttribute(&quot;cf-hash&quot;))return t[e]}();if(t&amp;&amp;t.previousSibling){var e,r,n,i,c=t.previousSibling,a=c.getAttribute(&quot;data-cfemail&quot;);if(a){for(e=&quot;&quot;,r=parseInt(a.substr(0,2),16),n=2;a.length-n;n+=2)i=parseInt(a.substr(n,2),16)^r,e+=String.fromCharCode(i);e=document.createTextNode(e),c.parentNode.replaceChild(e,c)}}}catch(u){}}();/* ]]&gt; */&lt;/script&gt;\nFormat settings, CABAC                   : Yes\nFormat settings, ReFrames                : 1 frame\nCodec ID                                 : avc1\nCodec ID/Info                            : Advanced Video Coding\nDuration                                 : 1h 32mn\nBit rate mode                            : Variable\nBit rate                                 : 1 999 Kbps\nWidth                                    : 1 920 pixels\nHeight                                   : 804 pixels\nDisplay aspect ratio                     : 2.40:1\nFrame rate mode                          : Variable\nFrame rate                               : 23.976 fps\nMinimum frame rate                       : 23.974 fps\nMaximum frame rate                       : 90.000 fps\nColor space                              : YUV\nChroma subsampling                       : 4:2:0\nBit depth                                : 8 bits\nScan type                                : Progressive\nBits/(Pixel*Frame)                       : 0.054\nStream size                              : 1.30 GiB (88%)\nWriting library                          : x264 core\n\nAudio\nID                                       : 2\nFormat                                   : AAC\nFormat/Info                              : Advanced Audio Codec\nFormat profile                           : LC\nCodec ID                                 : 40\nDuration                                 : 1h 32mn\nBit rate mode                            : Variable\nBit rate                                 : 256 Kbps\nMaximum bit rate                         : 338 Kbps\nChannel(s)                               : 6 channels\nChannel positions                        : Front: L C R, Side: L R, LFE\nSampling rate                            : 48.0 KHz\nCompression mode                         : Lossy\nStream size                              : 170 MiB (11%)\nLanguage                                 : English\nSubtitles                                : None\n\nIMDB: &lt;a href=&quot; http://www.imdb.com/title/tt1564585/&quot; rel=&quot;nofollow&quot; target=&quot;_NEW&quot;&gt; http://www.imdb.com/title/tt1564585/&lt;/a&gt;\n\nScreens: &lt;a href=&quot; http://bayimg.com/LAmmGaaEC&quot; rel=&quot;nofollow&quot; target=&quot;_NEW&quot;&gt; http://bayimg.com/LAmmGaaEC&lt;/a&gt;\n\n         &lt;a href=&quot; http://bayimg.com/lAMmJAaeC&quot; rel=&quot;nofollow&quot; target=&quot;_NEW&quot;&gt; http://bayimg.com/lAMmJAaeC&lt;/a&gt;\n\n         &lt;a href=&quot; http://bayimg.com/lamMlaAeC&quot; rel=&quot;nofollow&quot; target=&quot;_NEW&quot;&gt; http://bayimg.com/lamMlaAeC&lt;/a&gt;  \n\nStoryline\n\nJarrod and his pregnant girlfriend Elaine travel to Los Angeles to meet his old friend and successful entrepreneur Terry, and his wife Candice. Terry gives a party in his apartment for Jarrod and offers a job position to him in LA. Terry's assistant and lover Denise (Crystal Reed) and his friend Ray (Neil Hopkins) sleep on the couch in the living room, but in the dawn of the next morning, the group is awakened by mysterious beams of blue light. Ray stares at the light and is taken by the mysterious force. The group of friends try to escape from the alien invaders.\n\n\n\nEnjoy.","torrent":{"xt":"urn:btih:53ba0cd32675dddec1e9d5f9f7d01ece42e8eb8d","amp;dn":"Skyline.2010.BDRip.1080p.x264.Iou1","amp;tr":["udp%3A%2F%2Ftracker.openbittorrent.com%3A80","udp%3A%2F%2Fopen.demonii.com%3A1337","udp%3A%2F%2Ftracker.coppersurfer.tk%3A6969","udp%3A%2F%2Fexodus.desync.com%3A6969"],"infoHash":"53ba0cd32675dddec1e9d5f9f7d01ece42e8eb8d","infoHashBuffer":{"type":"Buffer","data":[83,186,12,211,38,117,221,222,193,233,213,249,247,208,30,206,66,232,235,141]},"announce":[],"urlList":[]}}